/* XPM */
static char *kodos[]={
"32 32 16 1",
". c None",
"# c #000000",
"h c #000099",
"i c #0000ff",
"c c #005500",
"k c #0066ff",
"m c #33ffff",
"g c #444444",
"j c #555555",
"b c #66cc33",
"e c #990000",
"n c #9966cc",
"l c #a0a0a4",
"a c #ccccff",
"d c #ffff66",
"f c #ffffff",
"...........###########..........",
".........##aaaaaaaaaaa##........",
"........#aaaaa######aaaa#.......",
".......#aaaa##bccbbc##aaa#......",
"......#aaaa#bcbbbbcbcb#aaa#.....",
"......#aaaa#cbbbbbbbbc#aaa#.....",
"......#aaaa#b########b#aaa#.....",
".....#aaaa#b#bbbbbbbb#b#aaa#....",
".....#aaaaa#bb######bb#aaaa#....",
".....#aaaa#bb#dddddd#bb#aaa#....",
".....#aa#a#b#dddddddd#b#a#a#....",
".....#aa###b#dddedddd#b###a#....",
".....#aa#b#b#dddedddd#b#b#a#....",
".....#aaa#bbb#dddddd#bbb#aa#....",
".....#aaaa##bb######bb##aaa#....",
".....#aaaaa#bbbbbbbbbb#aaaa#....",
"......#aaaa##bb####bbb#aaa#.....",
"......#aaaa#bbbbbbbbbb#aaa#.....",
"......#aaaa###bbbbbb###aaa#.....",
"......#aaa#bbb#bbbbbbbb#aa#.....",
"##....#aaa#b#bbbbbb##b#aaa#.....",
"#b#...#aaa##f#bbb##f#b#aaa#.....",
"#bb#...#aaa#gf###fghib#aa#....##",
"#bbb#..#aaa#ihfjfgiikb#aa#...#b#",
".#bbb#.#aaa#kihlg#kmk#aaa#...#b#",
"..#bb#.#aa##mm###biim#aaa#..#bb#",
"..#bb#####bbikbbbbimi#aaa#..#bb#",
"..###bbbbb#bbk###bikbb#aa#..#bb#",
"..#bbbb#bb#bbbbbbbbbbbb##...#bb#",
"..#bb###bb#############nn###bbb#",
".#bb#.#bb#nnnnnnnnnnnnnnn#bbbb#.",
".###..########################.."};
